# xmcd
#
# Track frame offsets: 
#        225
#        29350
#        60591
#        95017
#        124652
#        144023
#        165853
#        194502
#        244853
#        277817
#        303879
#        328597
#
# Disc length: 4521 seconds
#
# Revision: 0
# Processed by: cddbd v1.5.2PL0 Copyright (c) Steve Scherf et al.
# Submitted via: ExactAudioCopy v1.3
#
DISCID=9911a60c
DTITLE=Gallagher, Rory - Blues CD3
DYEAR=2019
DGENRE=Blues
TTITLE0=When My Baby She Left Me
TTITLE1=Nothin' But The Devil
TTITLE2=What In The World
TTITLE3=I Wonder Who
TTITLE4=Messin' With The Kid
TTITLE5=Tore Down
TTITLE6=Garbage Man Blues
TTITLE7=All Around Man
TTITLE8=Born Under A Bad Sign
TTITLE9=You Upset Me Baby
TTITLE10=Comin' Home Baby
TTITLE11=Rory Talking Blues
EXTD=
EXTT0=
EXTT1=
EXTT2=
EXTT3=
EXTT4=
EXTT5=
EXTT6=
EXTT7=
EXTT8=
EXTT9=
EXTT10=
EXTT11=
PLAYORDER=
